<svg xmlns="http://www.w3.org/2000/svg" xmlns:xlink="http://www.w3.org/1999/xlink" version="1.1" x="0px" y="0px" viewBox="0 0 100 125" enable-background="new 0 0 100 100" xml:space="preserve"><g><path d="M93.593,86.816L77.045,70.268c5.413-6.873,8.642-15.526,8.642-24.914C85.687,23.104,67.593,5,45.343,5S5,23.104,5,45.354   c0,22.239,18.094,40.343,40.343,40.343c9.399,0,18.062-3.239,24.924-8.653l16.549,16.559C87.754,94.531,88.979,95,90.205,95   c1.225,0,2.451-0.469,3.389-1.396C95.469,91.729,95.469,88.692,93.593,86.816z M14.59,45.354c0-16.964,13.799-30.764,30.753-30.764   c16.964,0,30.753,13.799,30.753,30.764c0,16.954-13.789,30.753-30.753,30.753C28.39,76.107,14.59,62.308,14.59,45.354z"/></g><g><path d="M58.772,49.611H31.919c-2.354,0-4.262-1.908-4.262-4.262s1.908-4.262,4.262-4.262h26.853c2.354,0,4.262,1.908,4.262,4.262   S61.125,49.611,58.772,49.611z"/></g></svg>
